<?xml version="1.0" encoding="utf-8"?>
<!-- Generator: Adobe Illustrator 16.0.0, SVG Export Plug-In . SVG Version: 6.00 Build 0)  -->
<!DOCTYPE svg PUBLIC "-//W3C//DTD SVG 1.1//EN" "http://www.w3.org/Graphics/SVG/1.1/DTD/svg11.dtd">
<svg version="1.1" id="Layer_1" xmlns="http://www.w3.org/2000/svg" xmlns:xlink="http://www.w3.org/1999/xlink" x="0px" y="0px"
	 width="622.182px" height="19.82px" viewBox="0 0 622.182 19.82" enable-background="new 0 0 622.182 19.82" xml:space="preserve">
<g>
	
		<polyline fill="none" stroke="#1B75BB" stroke-width="0.75" stroke-linecap="round" stroke-linejoin="round" stroke-miterlimit="10" points="
		127.768,16.676 132.295,12.166 136.385,16.236 140.912,11.727 145,15.797 	"/>
	
		<polyline fill="none" stroke="#1B75BB" stroke-width="0.75" stroke-linecap="round" stroke-linejoin="round" stroke-miterlimit="10" points="
		128.206,8.094 132.733,3.584 136.823,7.654 141.35,3.145 145.438,7.215 	"/>
	
		<line fill="none" stroke="#1B75BB" stroke-width="0.75" stroke-linecap="round" stroke-linejoin="round" stroke-miterlimit="10" x1="187.643" y1="1.079" x2="170.072" y2="18.625"/>
	
		<line fill="none" stroke="#1B75BB" stroke-width="0.75" stroke-linecap="round" stroke-linejoin="round" stroke-miterlimit="10" x1="178.805" y1="1.071" x2="169.989" y2="9.874"/>
	
		<line fill="none" stroke="#1B75BB" stroke-width="0.75" stroke-linecap="round" stroke-linejoin="round" stroke-miterlimit="10" x1="187.692" y1="9.945" x2="178.875" y2="18.749"/>
	<polyline fill="none" stroke="#1B75BB" stroke-width="0.75" stroke-linecap="round" stroke-miterlimit="10" points="
		424.922,18.739 433.69,9.994 442.457,18.739 	"/>
	<polyline fill="none" stroke="#1B75BB" stroke-width="0.75" stroke-linecap="round" stroke-miterlimit="10" points="424.922,9.979 
		433.69,1.236 442.457,9.979 	"/>
	
		<line fill="none" stroke="#1B75BB" stroke-width="0.75" stroke-linecap="round" stroke-linejoin="round" stroke-miterlimit="10" x1="469.015" y1="0.375" x2="488.084" y2="19.445"/>
	
		<line fill="none" stroke="#1B75BB" stroke-width="0.75" stroke-linecap="round" stroke-linejoin="round" stroke-miterlimit="10" x1="488.085" y1="0.375" x2="469.015" y2="19.445"/>
	
		<line fill="none" stroke="#1B75BB" stroke-width="0.75" stroke-linecap="round" stroke-linejoin="round" stroke-miterlimit="10" x1="468.949" y1="9.91" x2="488.151" y2="9.91"/>
	
		<line fill="none" stroke="#1B75BB" stroke-width="0.75" stroke-linecap="round" stroke-linejoin="round" stroke-miterlimit="10" x1="478.55" y1="0.309" x2="478.55" y2="19.512"/>
	
		<line fill="none" stroke="#1B75BB" stroke-width="0.75" stroke-linecap="round" stroke-miterlimit="10" x1="526.493" y1="12.986" x2="532.167" y2="18.648"/>
	
		<line fill="none" stroke="#1B75BB" stroke-width="0.75" stroke-linecap="round" stroke-miterlimit="10" x1="514.653" y1="1.172" x2="520.415" y2="6.92"/>
	
		<line fill="none" stroke="#1B75BB" stroke-width="0.75" stroke-linecap="round" stroke-miterlimit="10" x1="520.328" y1="12.986" x2="514.654" y2="18.648"/>
	
		<line fill="none" stroke="#1B75BB" stroke-width="0.75" stroke-linecap="round" stroke-miterlimit="10" x1="532.167" y1="1.172" x2="526.407" y2="6.92"/>
	
		<ellipse fill="none" stroke="#1B75BB" stroke-width="0.75" stroke-linecap="round" stroke-miterlimit="10" cx="523.41" cy="9.91" rx="4.239" ry="4.229"/>
	<path fill="#1B75BB" d="M523.411,2.553c0.446,0,0.809,0.353,0.809,0.786c0,0.435-0.362,0.787-0.809,0.787
		c-0.447,0-0.81-0.353-0.81-0.787C522.601,2.905,522.963,2.553,523.411,2.553"/>
	<path fill="#1B75BB" d="M523.411,15.693c0.446,0,0.809,0.353,0.809,0.787s-0.362,0.787-0.809,0.787c-0.447,0-0.81-0.353-0.81-0.787
		S522.963,15.693,523.411,15.693"/>
	<path fill="#1B75BB" d="M531.821,9.91c0,0.484-0.403,0.877-0.899,0.877c-0.497,0-0.898-0.393-0.898-0.877s0.401-0.877,0.898-0.877
		C531.417,9.033,531.821,9.426,531.821,9.91"/>
	<path fill="#1B75BB" d="M516.798,9.91c0,0.484-0.403,0.877-0.899,0.877S515,10.395,515,9.91s0.402-0.877,0.898-0.877
		S516.798,9.426,516.798,9.91"/>
	
		<line fill="none" stroke="#1B75BB" stroke-width="0.75" stroke-linecap="round" stroke-miterlimit="10" x1="574.42" y1="16.047" x2="577.045" y2="18.667"/>
	
		<line fill="none" stroke="#1B75BB" stroke-width="0.75" stroke-linecap="round" stroke-miterlimit="10" x1="559.496" y1="1.154" x2="562.121" y2="3.773"/>
	
		<line fill="none" stroke="#1B75BB" stroke-width="0.75" stroke-linecap="round" stroke-miterlimit="10" x1="562.121" y1="16.047" x2="559.496" y2="18.667"/>
	
		<line fill="none" stroke="#1B75BB" stroke-width="0.75" stroke-linecap="round" stroke-miterlimit="10" x1="577.045" y1="1.154" x2="574.42" y2="3.773"/>
	<path fill="none" stroke="#1B75BB" stroke-width="0.75" stroke-linecap="round" stroke-miterlimit="10" d="M569.948,5.432
		c-1.227,1.225-1.777,2.863-1.662,4.463c1.604,0.115,3.247-0.435,4.473-1.658c1.227-1.224,1.777-2.862,1.662-4.463
		C572.817,3.659,571.173,4.208,569.948,5.432z"/>
	<path fill="none" stroke="#1B75BB" stroke-width="0.75" stroke-linecap="round" stroke-miterlimit="10" d="M563.783,11.584
		c-1.226,1.224-1.776,2.862-1.662,4.463c1.604,0.114,3.247-0.436,4.474-1.658c1.226-1.225,1.776-2.863,1.662-4.465
		C566.652,9.811,565.009,10.359,563.783,11.584z"/>
	<path fill="none" stroke="#1B75BB" stroke-width="0.75" stroke-linecap="round" stroke-miterlimit="10" d="M569.948,14.389
		c-1.227-1.225-1.777-2.863-1.662-4.463c1.604-0.115,3.247,0.434,4.473,1.657c1.227,1.224,1.777,2.863,1.662,4.464
		C572.817,16.161,571.173,15.612,569.948,14.389z"/>
	<path fill="none" stroke="#1B75BB" stroke-width="0.75" stroke-linecap="round" stroke-miterlimit="10" d="M563.783,8.236
		c-1.226-1.224-1.776-2.862-1.662-4.463c1.604-0.115,3.247,0.435,4.474,1.658c1.226,1.225,1.776,2.863,1.662,4.463
		C566.652,10.01,565.009,9.461,563.783,8.236z"/>
	
		<path fill="none" stroke="#1B75BB" stroke-width="0.75" stroke-linecap="round" stroke-linejoin="round" stroke-miterlimit="10" d="
		M614.562,3.346L614.562,3.346l-1.432,3.463l-1.427-3.453c-0.326-0.789,0.048-1.695,0.836-2.021
		c0.788-0.328,1.692,0.047,2.018,0.838C614.719,2.562,614.709,2.982,614.562,3.346z"/>
	
		<path fill="none" stroke="#1B75BB" stroke-width="0.75" stroke-linecap="round" stroke-linejoin="round" stroke-miterlimit="10" d="
		M611.701,16.474L611.701,16.474l1.431-3.462l1.427,3.453c0.326,0.79-0.048,1.695-0.836,2.021c-0.788,0.327-1.692-0.048-2.018-0.838
		C611.542,17.258,611.552,16.838,611.701,16.474z"/>
	
		<path fill="none" stroke="#1B75BB" stroke-width="0.75" stroke-linecap="round" stroke-linejoin="round" stroke-miterlimit="10" d="
		M619.68,11.344L619.68,11.344l-3.455-1.434l3.446-1.43c0.788-0.328,1.69,0.047,2.018,0.838c0.326,0.789-0.048,1.694-0.836,2.021
		C620.462,11.503,620.043,11.492,619.68,11.344z"/>
	
		<path fill="none" stroke="#1B75BB" stroke-width="0.75" stroke-linecap="round" stroke-linejoin="round" stroke-miterlimit="10" d="
		M606.582,8.477L606.582,8.477l3.455,1.434l-3.446,1.43c-0.788,0.327-1.691-0.048-2.018-0.838c-0.326-0.789,0.048-1.695,0.836-2.021
		C605.799,8.317,606.218,8.328,606.582,8.477z"/>
	
		<path fill="none" stroke="#1B75BB" stroke-width="0.75" stroke-linecap="round" stroke-linejoin="round" stroke-miterlimit="10" d="
		M618.774,6.283L618.774,6.283l-3.454,1.434l1.427-3.452c0.326-0.79,1.23-1.165,2.018-0.838c0.788,0.327,1.162,1.231,0.837,2.022
		C619.439,5.841,619.134,6.13,618.774,6.283z"/>
	
		<path fill="none" stroke="#1B75BB" stroke-width="0.75" stroke-linecap="round" stroke-linejoin="round" stroke-miterlimit="10" d="
		M607.488,13.537L607.488,13.537l3.454-1.434l-1.427,3.452c-0.326,0.79-1.23,1.165-2.019,0.838
		c-0.787-0.327-1.161-1.232-0.836-2.022C606.823,13.979,607.127,13.69,607.488,13.537z"/>
	
		<path fill="none" stroke="#1B75BB" stroke-width="0.75" stroke-linecap="round" stroke-linejoin="round" stroke-miterlimit="10" d="
		M616.75,15.564L616.75,15.564l-1.431-3.461l3.444,1.43c0.788,0.328,1.162,1.232,0.836,2.023c-0.326,0.789-1.229,1.164-2.018,0.836
		C617.192,16.23,616.903,15.928,616.75,15.564z"/>
	
		<path fill="none" stroke="#1B75BB" stroke-width="0.75" stroke-linecap="round" stroke-linejoin="round" stroke-miterlimit="10" d="
		M609.511,4.255L609.511,4.255l1.431,3.462l-3.444-1.43c-0.788-0.328-1.162-1.232-0.836-2.023c0.327-0.789,1.229-1.164,2.018-0.838
		C609.07,3.589,609.359,3.893,609.511,4.255z"/>
	
		<path fill="none" stroke="#1B75BB" stroke-width="0.75" stroke-linecap="round" stroke-linejoin="round" stroke-miterlimit="10" d="
		M99.419,3.822c0-1.392-1.132-2.521-2.527-2.521s-2.526,1.129-2.526,2.521V9.91l4.326-4.316H98.69
		C99.141,5.139,99.419,4.513,99.419,3.822z"/>
	
		<path fill="none" stroke="#1B75BB" stroke-width="0.75" stroke-linecap="round" stroke-linejoin="round" stroke-miterlimit="10" d="
		M89.313,3.822c0-1.392,1.131-2.521,2.526-2.521s2.526,1.129,2.526,2.521V9.91l-4.325-4.316h0.001
		C89.59,5.139,89.313,4.513,89.313,3.822z"/>
	
		<path fill="none" stroke="#1B75BB" stroke-width="0.75" stroke-linecap="round" stroke-linejoin="round" stroke-miterlimit="10" d="
		M89.313,15.997c0,1.392,1.131,2.521,2.526,2.521s2.526-1.129,2.526-2.521V9.91l-4.325,4.316h0.001
		C89.59,14.682,89.313,15.307,89.313,15.997z"/>
	
		<path fill="none" stroke="#1B75BB" stroke-width="0.75" stroke-linecap="round" stroke-linejoin="round" stroke-miterlimit="10" d="
		M99.419,15.997c0,1.392-1.132,2.521-2.527,2.521s-2.526-1.129-2.526-2.521V9.91l4.326,4.316H98.69
		C99.141,14.682,99.419,15.307,99.419,15.997z"/>
	
		<path fill="none" stroke="#1B75BB" stroke-width="0.75" stroke-linecap="round" stroke-linejoin="round" stroke-miterlimit="10" d="
		M100.466,14.952c1.396,0,2.526-1.129,2.526-2.521c0-1.393-1.131-2.521-2.526-2.521h-6.101l4.326,4.316v-0.001
		C99.149,14.674,99.774,14.952,100.466,14.952z"/>
	
		<path fill="none" stroke="#1B75BB" stroke-width="0.75" stroke-linecap="round" stroke-linejoin="round" stroke-miterlimit="10" d="
		M100.466,4.867c1.396,0,2.526,1.129,2.526,2.521s-1.131,2.521-2.526,2.521h-6.101l4.326-4.316v0.001
		C99.149,5.146,99.774,4.867,100.466,4.867z"/>
	
		<path fill="none" stroke="#1B75BB" stroke-width="0.75" stroke-linecap="round" stroke-linejoin="round" stroke-miterlimit="10" d="
		M88.266,4.867c-1.396,0-2.527,1.129-2.527,2.521s1.132,2.521,2.527,2.521h6.1l-4.325-4.316v0.001
		C89.583,5.146,88.958,4.867,88.266,4.867z"/>
	
		<path fill="none" stroke="#1B75BB" stroke-width="0.75" stroke-linecap="round" stroke-linejoin="round" stroke-miterlimit="10" d="
		M88.266,14.952c-1.396,0-2.527-1.129-2.527-2.521c0-1.393,1.132-2.521,2.527-2.521h6.1l-4.325,4.316v-0.001
		C89.583,14.674,88.958,14.952,88.266,14.952z"/>
	
		<line fill="none" stroke="#1B75BB" stroke-width="0.75" stroke-linecap="round" stroke-linejoin="round" stroke-miterlimit="10" x1="56.045" y1="13.818" x2="60.903" y2="18.666"/>
	
		<line fill="none" stroke="#1B75BB" stroke-width="0.75" stroke-linecap="round" stroke-linejoin="round" stroke-miterlimit="10" x1="43.354" y1="1.154" x2="48.256" y2="6.047"/>
	
		<line fill="none" stroke="#1B75BB" stroke-width="0.75" stroke-linecap="round" stroke-linejoin="round" stroke-miterlimit="10" x1="48.211" y1="13.818" x2="43.354" y2="18.666"/>
	
		<line fill="none" stroke="#1B75BB" stroke-width="0.75" stroke-linecap="round" stroke-linejoin="round" stroke-miterlimit="10" x1="60.903" y1="1.154" x2="56.045" y2="6.002"/>
	
		<polygon fill="none" stroke="#1B75BB" stroke-width="0.75" stroke-linecap="round" stroke-linejoin="round" stroke-miterlimit="10" points="
		52.128,18.467 43.557,9.91 52.128,1.353 60.7,9.91 	"/>
	
		<path fill="none" stroke="#1B75BB" stroke-width="0.75" stroke-linecap="round" stroke-linejoin="round" stroke-miterlimit="10" d="
		M53.196,7.058c-0.78,0.779-1.131,1.823-1.059,2.843c1.022,0.073,2.068-0.276,2.85-1.057c0.781-0.779,1.132-1.823,1.059-2.842
		C55.024,5.929,53.977,6.279,53.196,7.058z"/>
	
		<path fill="none" stroke="#1B75BB" stroke-width="0.75" stroke-linecap="round" stroke-linejoin="round" stroke-miterlimit="10" d="
		M49.27,10.976c-0.781,0.779-1.132,1.823-1.059,2.843c1.021,0.073,2.068-0.276,2.849-1.057c0.781-0.779,1.132-1.822,1.06-2.842
		C51.097,9.847,50.051,10.197,49.27,10.976z"/>
	
		<path fill="none" stroke="#1B75BB" stroke-width="0.75" stroke-linecap="round" stroke-linejoin="round" stroke-miterlimit="10" d="
		M53.196,12.762c-0.78-0.778-1.131-1.822-1.059-2.842c1.022-0.074,2.068,0.276,2.85,1.057c0.781,0.779,1.132,1.822,1.059,2.842
		C55.024,13.891,53.977,13.541,53.196,12.762z"/>
	
		<path fill="none" stroke="#1B75BB" stroke-width="0.75" stroke-linecap="round" stroke-linejoin="round" stroke-miterlimit="10" d="
		M49.27,8.844c-0.781-0.778-1.132-1.822-1.059-2.842c1.021-0.074,2.068,0.276,2.849,1.057c0.781,0.779,1.132,1.822,1.06,2.842
		C51.097,9.973,50.051,9.623,49.27,8.844z"/>
	
		<line fill="none" stroke="#1B75BB" stroke-width="0.75" stroke-linecap="round" stroke-linejoin="round" stroke-miterlimit="10" x1="0.499" y1="0.52" x2="19.284" y2="19.301"/>
	
		<line fill="none" stroke="#1B75BB" stroke-width="0.75" stroke-linecap="round" stroke-linejoin="round" stroke-miterlimit="10" x1="19.284" y1="0.52" x2="0.499" y2="19.301"/>
	
		<path fill="none" stroke="#1B75BB" stroke-width="0.75" stroke-linecap="round" stroke-linejoin="round" stroke-miterlimit="10" d="
		M8.171,16.867L8.171,16.867l1.719-4.15l1.716,4.141c0.392,0.946-0.058,2.031-1.005,2.424c-0.947,0.393-2.033-0.058-2.426-1.004
		C7.981,17.808,7.995,17.304,8.171,16.867z"/>
	
		<path fill="none" stroke="#1B75BB" stroke-width="0.75" stroke-linecap="round" stroke-linejoin="round" stroke-miterlimit="10" d="
		M11.61,2.952L11.61,2.952L9.892,7.104L8.175,2.963C7.784,2.016,8.233,0.932,9.181,0.538c0.947-0.392,2.033,0.058,2.426,1.005
		C11.8,2.012,11.788,2.516,11.61,2.952z"/>
	
		<path fill="none" stroke="#1B75BB" stroke-width="0.75" stroke-linecap="round" stroke-linejoin="round" stroke-miterlimit="10" d="
		M16.851,11.629L16.851,11.629L12.699,9.91l4.141-1.715c0.947-0.393,2.033,0.058,2.425,1.005c0.393,0.946-0.057,2.032-1.004,2.425
		C17.791,11.819,17.287,11.807,16.851,11.629z"/>
	
		<path fill="none" stroke="#1B75BB" stroke-width="0.75" stroke-linecap="round" stroke-linejoin="round" stroke-miterlimit="10" d="
		M2.931,8.191L2.931,8.191L7.083,9.91l-4.141,1.715c-0.947,0.393-2.033-0.059-2.425-1.005C0.124,9.673,0.574,8.588,1.521,8.195
		C1.991,8.001,2.495,8.014,2.931,8.191z"/>
	<polygon fill="#006DB6" points="242.44,2.159 242.44,4.005 235.422,4.005 235.422,8.501 241.013,8.501 241.013,10.348 
		235.422,10.348 235.422,15.814 242.44,15.814 242.44,17.661 233.147,17.661 233.147,2.159 	"/>
	<polygon fill="#006DB6" points="259.356,15.814 263.547,15.814 263.547,17.661 257.081,17.661 257.081,2.159 259.356,2.159 	"/>
	<polygon fill="#006DB6" points="304.103,2.159 304.103,17.661 301.827,17.661 301.827,7.889 297.534,15.325 292.999,7.801 
		292.999,17.661 290.722,17.661 290.722,2.159 292.2,2.159 297.507,11.021 302.634,2.159 	"/>
	<path fill="#006DB6" d="M336.342,9.91c0,2.238-0.815,4.176-2.447,5.81c-1.633,1.636-3.642,2.452-6.029,2.452
		c-2.37,0-4.375-0.816-6.016-2.452c-1.641-1.634-2.462-3.571-2.462-5.81c0-2.233,0.821-4.168,2.462-5.807
		c1.641-1.637,3.646-2.455,6.016-2.455c2.388,0,4.396,0.818,6.029,2.455C335.527,5.742,336.342,7.677,336.342,9.91 M327.866,3.589
		c-1.632,0-3.057,0.61-4.277,1.829c-1.219,1.22-1.829,2.718-1.829,4.492c0,1.781,0.61,3.279,1.829,4.496
		c1.221,1.217,2.646,1.824,4.277,1.824c1.655,0,3.089-0.607,4.303-1.824s1.821-2.715,1.821-4.496c0-1.774-0.607-3.272-1.821-4.492
		C330.955,4.199,329.521,3.589,327.866,3.589"/>
	<path fill="#006DB6" d="M393.021,9.91c0,2.238-0.815,4.176-2.447,5.81c-1.633,1.636-3.642,2.452-6.029,2.452
		c-2.37,0-4.375-0.816-6.016-2.452c-1.641-1.634-2.462-3.571-2.462-5.81c0-2.233,0.821-4.168,2.462-5.807
		c1.641-1.637,3.646-2.455,6.016-2.455c2.388,0,4.396,0.818,6.029,2.455C392.206,5.742,393.021,7.677,393.021,9.91 M384.544,3.589
		c-1.632,0-3.057,0.61-4.277,1.829c-1.219,1.22-1.829,2.718-1.829,4.492c0,1.781,0.61,3.279,1.829,4.496
		c1.221,1.217,2.646,1.824,4.277,1.824c1.655,0,3.089-0.607,4.303-1.824s1.821-2.715,1.821-4.496c0-1.774-0.607-3.272-1.821-4.492
		C387.633,4.199,386.2,3.589,384.544,3.589"/>
	<path fill="#006DB6" d="M361.532,11.313c1.088-1.087,1.632-2.35,1.632-3.786c0-1.438-0.519-2.678-1.555-3.72
		c-1.014-1.013-2.059-1.548-3.135-1.606V2.158h-6.39V17.66h2.276v-3.453h-0.005V9.398h0.005V4.006h3.486
		c0.756,0.046,1.429,0.363,2.019,0.953c0.699,0.699,1.048,1.554,1.048,2.568c0,1.012-0.351,1.885-0.97,2.558
		c-0.271,0.294-0.565,0.575-0.909,0.808c-0.328-0.415-0.589-0.736-0.993-1.066c-0.65-0.529-1.611-0.84-2.424-0.504
		c-2.02,0.834-1.295,2.726-0.649,3.326c0.766,0.711,1.785,0.626,2.659,0.369c0.083-0.023,0.161-0.051,0.241-0.077l2.727,4.72h2.508
		l-3.049-5.289C360.5,12.21,360.994,11.859,361.532,11.313 M355.727,11.613c-0.271-0.384-0.087-0.908,0.335-1.06
		c0.415-0.149,0.805,0.112,1.096,0.356c0.222,0.188,0.371,0.387,0.537,0.602C357.448,11.697,356.215,12.306,355.727,11.613"/>
</g>
</svg>
